<svg width="60" height="54" viewBox="0 0 60 54" fill="current" xmlns="http://www.w3.org/2000/svg">
<path d="M17.3923 14.4483C16.7752 14.4483 16.4989 13.6742 16.9765 13.2834L29.5833 2.96874C29.8252 2.77084 30.173 2.77084 30.4149 2.96874L43.0217 13.2834C43.4993 13.6742 43.223 14.4483 42.6059 14.4483H17.3923ZM38.9268 12.4783L29.9991 5.17383L21.0714 12.4783H38.9268Z" fill="current"/>
<path d="M16.8661 27.2527C16.8661 26.7087 17.3071 26.2677 17.8511 26.2677H42.1472C42.6912 26.2677 43.1322 26.7087 43.1322 27.2527C43.1322 27.7966 42.6912 28.2376 42.1472 28.2376H17.8511C17.3071 28.2376 16.8661 27.7966 16.8661 27.2527Z" fill="current"/>
<path d="M22.1193 17.0745C21.394 17.0745 20.806 17.6625 20.806 18.3879V22.3278C20.806 23.0531 21.394 23.6411 22.1193 23.6411C22.8446 23.6411 23.4326 23.0531 23.4326 22.3278V18.3879C23.4326 17.6625 22.8446 17.0745 22.1193 17.0745Z" fill="current"/>
<path d="M28.6858 18.3879C28.6858 17.6625 29.2738 17.0745 29.9991 17.0745C30.7244 17.0745 31.3124 17.6625 31.3124 18.3879V22.3278C31.3124 23.0531 30.7244 23.6411 29.9991 23.6411C29.2738 23.6411 28.6858 23.0531 28.6858 22.3278V18.3879Z" fill="current"/>
<path d="M37.8789 17.0745C37.1536 17.0745 36.5656 17.6625 36.5656 18.3879V22.3278C36.5656 23.0531 37.1536 23.6411 37.8789 23.6411C38.6043 23.6411 39.1922 23.0531 39.1922 22.3278V18.3879C39.1922 17.6625 38.6043 17.0745 37.8789 17.0745Z" fill="current"/>
<path d="M17.4441 47.7073H16.4822V39.1528H17.4441V47.7073ZM7.79953 45.2833C8.27406 45.061 8.69088 44.7532 9.04999 44.3599C9.40909 43.9623 9.68484 43.5284 9.87721 43.0581C10.0696 42.5836 10.1636 42.1197 10.1594 41.6666V39.9608H11.1341V41.6666C11.1341 42.1155 11.2239 42.5558 11.4034 42.9876C11.5872 43.4194 11.8502 43.8105 12.1922 44.1611C12.5384 44.5116 12.9467 44.7874 13.417 44.9883L12.8527 45.7835C12.3397 45.5484 11.8951 45.2234 11.5188 44.8088C11.1469 44.3941 10.8605 43.9217 10.6596 43.3916C10.4501 43.973 10.1465 44.4988 9.74896 44.9691C9.35566 45.4393 8.89395 45.8049 8.36384 46.0656L7.79953 45.2833ZM9.96699 46.6556H10.9674V49.4643H17.7904V50.3108H9.96699V46.6556ZM12.4294 42.0513H14.225V39.3837H15.1997V47.3866H14.225V42.885H12.4294V42.0513ZM28.5636 50.5801H27.5632V44.2958H25.1521V43.4621H27.5632V39.1528H28.5636V50.5801ZM19.6372 40.2045H24.9597V41.0381H20.6504V43.4108H24.4595V44.2316H20.6504V46.9891C21.7748 46.9848 22.7024 46.9591 23.4335 46.9121C24.1688 46.8651 24.9084 46.7753 25.6522 46.6428L25.7677 47.4764C24.9554 47.6089 24.1581 47.7009 23.3758 47.7522C22.5977 47.7992 21.6422 47.8227 20.5093 47.8227H19.6372V40.2045ZM36.7845 40.6406C36.7803 41.2348 36.761 41.7841 36.7268 42.2886C36.6926 42.7931 36.6135 43.3681 36.4896 44.0136L35.4764 43.9366C35.5961 43.3381 35.6752 42.8059 35.7136 42.3399C35.7564 41.8739 35.782 41.3887 35.7906 40.8842H31.103V40.0378H36.7845V40.6406ZM30.3976 45.0781C31.2996 45.0781 32.1162 45.0674 32.8472 45.046V42.5644H33.8476V45.014C35.3182 44.9541 36.5708 44.8515 37.6054 44.7062L37.6695 45.45C36.605 45.6339 35.4806 45.7557 34.2965 45.8155C33.1123 45.8754 31.8468 45.9075 30.5002 45.9117L30.3976 45.0781ZM32.1546 46.9634H33.1678V49.4643H39.7728V50.3108H32.1546V46.9634ZM38.3749 39.1528H39.4009V42.8722H41.0682V43.7314H39.4009V47.7329H38.3749V39.1528ZM51.2258 50.5801H50.2254V39.1528H51.2258V50.5801ZM42.4533 40.2173H47.7629V44.2701H43.505V46.9634C44.5096 46.9677 45.4523 46.9399 46.3329 46.88C47.2179 46.8202 48.1477 46.7112 49.1224 46.553L49.225 47.3995C48.2332 47.5534 47.2841 47.6602 46.3778 47.7201C45.4715 47.7799 44.4882 47.8099 43.428 47.8099H42.479V43.4493H46.7498V41.051H42.4533V40.2173Z" fill="current"/>
</svg>
