<svg width="60" height="54" viewBox="0 0 60 54" fill="current" xmlns="http://www.w3.org/2000/svg">
<path d="M26.0583 27.5777H22.2479C21.8853 27.5777 21.5913 27.2837 21.5913 26.921V15.7608H17.3923C16.7752 15.7608 16.4989 14.9867 16.9765 14.5959L29.5833 4.28124C29.8252 4.08334 30.173 4.08334 30.4149 4.28124L43.0217 14.5959C43.4993 14.9867 43.223 15.7608 42.6059 15.7608H38.4082V26.921C38.4082 27.2837 38.1142 27.5777 37.7515 27.5777H33.9381V27.5802H26.0583V27.5777ZM23.5613 13.7908V25.6077H26.0583V19.7004C26.0583 18.2498 27.8223 17.0738 29.9982 17.0738C32.1742 17.0738 33.9381 18.2498 33.9381 19.7004V25.6077H36.4382V13.7908H38.9268L29.9991 6.48633L21.0714 13.7908H23.5613ZM31.9682 25.6077V19.7389C31.9472 19.6998 31.8802 19.6081 31.6914 19.4822C31.3444 19.2509 30.7515 19.0437 29.9982 19.0437C29.2449 19.0437 28.652 19.2509 28.305 19.4822C28.1162 19.6081 28.0492 19.6998 28.0283 19.7389V25.6077H31.9682ZM31.9766 19.7597C31.9766 19.7597 31.9742 19.7558 31.9723 19.7472C31.9761 19.7553 31.9766 19.7597 31.9766 19.7597ZM28.0199 19.7597C28.0199 19.7597 28.0204 19.7553 28.0241 19.7472C28.0223 19.7558 28.0199 19.7597 28.0199 19.7597Z" fill="current"/>
<path d="M33.9053 50.4006H26.0562V47.143H33.9053V50.4006ZM24.7865 45.4629H29.4806V44.5843C28.4417 44.5458 27.6466 44.3919 27.0951 44.1226C26.5479 43.849 26.2743 43.4664 26.2743 42.9748C26.2743 42.4489 26.5928 42.0513 27.2298 41.782C27.871 41.5084 28.788 41.3673 29.9808 41.3588C31.1735 41.3673 32.0862 41.5084 32.7189 41.782C33.3559 42.0513 33.6744 42.4489 33.6744 42.9748C33.6744 43.4664 33.4008 43.849 32.8536 44.1226C32.3064 44.3919 31.5155 44.5458 30.4809 44.5843V45.4629H35.175V46.2708H24.7865V45.4629ZM25.3252 40.1147H29.4806V38.9861H30.4809V40.1147H34.5722V40.8971H25.3252V40.1147ZM32.9177 49.6182V47.9253H27.0566V49.6182H32.9177ZM27.3516 42.9748C27.3473 43.2655 27.5739 43.4899 28.0313 43.6481C28.493 43.8063 29.1428 43.8853 29.9808 43.8853C30.8187 43.8853 31.4642 43.8063 31.9174 43.6481C32.3748 43.4899 32.6057 43.2655 32.6099 42.9748C32.6057 42.6841 32.3769 42.4617 31.9238 42.3078C31.4749 42.1539 30.8272 42.0727 29.9808 42.0642C29.1343 42.0727 28.4823 42.1539 28.0249 42.3078C27.5718 42.4617 27.3473 42.6841 27.3516 42.9748Z" fill="current"/>
</svg>
