<svg xmlns="http://www.w3.org/2000/svg" viewBox="0 0 87 28" fill="none">
  <path d="M57.5872 0C57.3545 0 57.1656 0.189156 57.1656 0.422492V7.73188L60.1231 4.77444V0.422492C60.1231 0.189156 59.9326 0 59.6999 0H57.5872Z" fill="#2D62EA"/>
  <path d="M70.6243 7.72053H86.1114C86.241 7.72053 86.3456 7.8253 86.3456 7.95453V10.6004C86.3456 10.7296 86.241 10.8344 86.1114 10.8344H80.0793V27.7601C80.0793 27.8894 79.9746 27.9941 79.845 27.9941H76.8657C76.7361 27.9941 76.6299 27.8894 76.6299 27.7601V10.8344H70.6274C70.4962 10.8344 70.3916 10.7298 70.3916 10.6006L70.3885 7.95476C70.3885 7.82543 70.4931 7.72053 70.6243 7.72053Z" fill="#2D62EA"/>
  <path fill-rule="evenodd" clip-rule="evenodd" d="M0 7.95873C0 7.8295 0.106183 7.72474 0.235789 7.72474H8.69609C10.0936 7.72474 11.2367 7.93062 12.1189 8.33615C13.0027 8.7448 13.682 9.25639 14.1614 9.86781C14.6408 10.4792 14.9656 11.1499 15.142 11.8736C15.3154 12.5973 15.4044 13.2649 15.4044 13.8794C15.4044 14.494 15.3185 15.1553 15.142 15.8728C14.9656 16.5871 14.6408 17.2516 14.1614 17.8661C13.682 18.4775 13.0027 18.986 12.1189 19.3853C11.2336 19.7846 10.0936 19.9842 8.69609 19.9842H3.44939V27.7635C3.44939 27.8927 3.34477 27.9975 3.21516 27.9975H0.235789C0.106183 27.9975 0 27.8927 0 27.7635V7.95873ZM3.44939 17.1424H8.50402C8.89128 17.1424 9.28634 17.0862 9.69233 16.9739C10.0968 16.8616 10.4668 16.6807 10.8104 16.4312C11.1508 16.1816 11.4256 15.8447 11.6395 15.4298C11.8488 15.0118 11.9581 14.4877 11.9581 13.8545C11.9581 13.2212 11.8644 12.666 11.6833 12.2386C11.4974 11.8112 11.2492 11.4712 10.9369 11.2217C10.6246 10.9721 10.267 10.8005 9.86098 10.7069C9.45654 10.6134 9.024 10.5666 8.56336 10.5666H3.44939V17.1424Z" fill="#2D62EA"/>
  <path fill-rule="evenodd" clip-rule="evenodd" d="M21.9862 28C20.8665 28 19.8687 27.824 18.9927 27.4721C18.1152 27.1202 17.375 26.6355 16.7723 26.0153C16.1648 25.398 15.7073 24.6595 15.3919 23.7999C15.0764 22.9403 14.9187 21.997 14.9187 20.9672C14.9187 19.9373 15.0764 19.0171 15.3919 18.1604C15.7073 17.3007 16.1679 16.5623 16.7723 15.9449C17.375 15.3276 18.1152 14.843 18.9927 14.4882C19.8687 14.1362 20.8665 13.9603 21.9862 13.9603C23.1042 13.9603 24.102 14.1362 24.9796 14.4882C25.8556 14.8401 26.5958 15.3247 27.1985 15.9449C27.8028 16.5623 28.2635 17.3007 28.5789 18.1604C28.8943 19.02 29.052 19.9546 29.052 20.9672C29.052 21.9797 28.8943 22.9432 28.5789 23.7999C28.2635 24.6595 27.8028 25.398 27.1985 26.0153C26.5926 26.6327 25.8525 27.1202 24.9796 27.4721C24.1051 27.824 23.1042 28 21.9862 28ZM21.9862 25.6807C22.6717 25.6807 23.2682 25.5423 23.7725 25.2682C24.2785 24.9942 24.6938 24.6336 25.0186 24.1865C25.3434 23.7393 25.5823 23.2374 25.7369 22.6807C25.8884 22.1239 25.968 21.5527 25.968 20.9672C25.968 20.3816 25.8915 19.8335 25.7369 19.2681C25.5823 18.7027 25.3465 18.1979 25.0186 17.7623C24.6938 17.3238 24.2785 16.969 23.7725 16.6921C23.265 16.418 22.6717 16.2795 21.9862 16.2795C21.3006 16.2795 20.7026 16.418 20.1998 16.6921C19.6923 16.9661 19.2769 17.3238 18.9521 17.7623C18.6273 18.2007 18.3884 18.7027 18.2338 19.2681C18.0792 19.8335 18.0027 20.4018 18.0027 20.9672C18.0027 21.5325 18.0792 22.121 18.2338 22.6807C18.3853 23.2403 18.6258 23.7422 18.9521 24.1865C19.2769 24.6336 19.6923 24.9942 20.1998 25.2682C20.7057 25.5423 21.3006 25.6807 21.9862 25.6807Z" fill="#2D62EA"/>
  <path d="M30.8587 13.9603C30.7291 13.9603 30.6229 14.065 30.6229 14.1943V27.766C30.6229 27.8952 30.7291 28 30.8587 28H33.5289C33.6585 28 33.7631 27.8952 33.7631 27.766V14.1943C33.7631 14.065 33.6585 13.9603 33.5289 13.9603H30.8587Z" fill="#2D62EA"/>
  <path d="M39.0988 15.7132V13.8291C39.0988 13.6998 38.9926 13.5951 38.863 13.5951H36.3599C36.2303 13.5951 36.1241 13.6998 36.1241 13.8291V27.7636C36.1241 27.8929 36.2303 27.9976 36.3599 27.9976H39.0364C39.166 27.9976 39.2706 27.8929 39.2706 27.7636V19.5002C39.2706 18.9824 39.3518 18.4895 39.5189 18.0247C39.6828 17.563 39.9139 17.1575 40.2075 16.8144C40.5011 16.4712 40.8602 16.1998 41.2834 16.0064C41.7034 15.8099 42.1828 15.7132 42.7184 15.7132C43.6584 15.7132 44.3471 15.969 44.789 16.4806C45.2309 16.9891 45.4698 17.8126 45.5073 18.945V27.7636C45.5073 27.8929 45.6119 27.9976 45.7415 27.9976H48.4179C48.5476 27.9976 48.6537 27.8929 48.6537 27.7636V18.1089C48.6537 16.4743 48.2025 15.2484 47.2999 14.4311C46.3973 13.6138 45.1637 13.2051 43.5991 13.2051C42.6591 13.2051 41.8034 13.4329 41.0304 13.8883C40.2575 14.3438 39.6329 14.9708 39.1535 15.7693L39.0988 15.7132Z" fill="#2D62EA"/>
  <path d="M33.7616 9.28155C33.7616 10.1431 33.0589 10.8415 32.1922 10.8415C31.324 10.8415 30.6213 10.1431 30.6213 9.28155C30.6213 8.42001 31.324 7.72158 32.1922 7.72158C33.0589 7.72158 33.7616 8.42001 33.7616 9.28155Z" fill="#2D62EA"/>
  <path d="M67.431 10.6895C67.6636 10.6895 67.8541 10.5003 67.8541 10.267V8.15453C67.8541 7.92119 67.6636 7.73204 67.431 7.73204L63.079 7.73204L60.1215 10.6895H67.431Z" fill="#2D62EA"/>
  <path d="M59.6999 18.4216C59.9326 18.4216 60.1231 18.2324 60.1231 17.9991L60.1215 10.6895L57.1656 13.6471V17.9991C57.1656 18.2324 57.3545 18.4216 57.5872 18.4216H59.6999Z" fill="#2D62EA"/>
  <path d="M49.8561 7.7321C49.6219 7.7321 49.4329 7.92126 49.4329 8.15459V10.2671C49.4329 10.5004 49.6219 10.6895 49.8561 10.6895H54.208L57.1656 7.73188L49.8561 7.7321Z" fill="#2D62EA"/>
  <path d="M57.7386 7.94349C57.5388 7.94349 57.3764 8.10563 57.3764 8.30563V10.1163C57.3764 10.3163 57.5388 10.4784 57.7386 10.4784H59.55C59.7499 10.4784 59.9107 10.3163 59.9107 10.1163V8.30563C59.9107 8.10563 59.7499 7.94349 59.55 7.94349H57.7386Z" fill="#2D62EA"/>
</svg>