<svg width="60" height="54" viewBox="0 0 60 54" fill="current" xmlns="http://www.w3.org/2000/svg">
<path d="M28.6865 7.87741C28.6865 10.0534 26.9226 11.8173 24.7466 11.8173C22.5707 11.8173 20.8067 10.0534 20.8067 7.87741C20.8067 5.70146 22.5707 3.9375 24.7466 3.9375C26.9226 3.9375 28.6865 5.70146 28.6865 7.87741ZM26.7166 7.87741C26.7166 6.78943 25.8346 5.90746 24.7466 5.90746C23.6586 5.90746 22.7767 6.78943 22.7767 7.87741C22.7767 8.96539 23.6586 9.84737 24.7466 9.84737C25.8346 9.84737 26.7166 8.96539 26.7166 7.87741Z" fill="current"/>
<path d="M37.8796 10.504C37.8796 12.68 36.1157 14.4439 33.9397 14.4439C31.7638 14.4439 29.9998 12.68 29.9998 10.504C29.9998 8.32807 31.7638 6.56411 33.9397 6.56411C36.1157 6.56411 37.8796 8.32807 37.8796 10.504ZM35.9097 10.504C35.9097 9.41604 35.0277 8.53406 33.9397 8.53406C32.8518 8.53406 31.9698 9.41604 31.9698 10.504C31.9698 11.592 32.8518 12.474 33.9397 12.474C35.0277 12.474 35.9097 11.592 35.9097 10.504Z" fill="current"/>
<path d="M24.0612 21.6671C23.6558 22.709 23.4333 23.8423 23.4333 25.0276C23.4333 25.7103 23.9867 26.2637 24.6694 26.2637H41.8968C42.5795 26.2637 43.1329 25.7103 43.1329 25.0276C43.1329 19.9077 38.9824 15.7572 33.8625 15.7572H32.7037C31.9897 15.7572 31.2946 15.8379 30.627 15.9907C30.5731 15.6823 30.4457 15.3869 30.2499 15.1315C29.0532 13.5707 27.235 12.474 25.1062 12.474H24.334C20.4958 12.474 17.8339 15.8821 17.5302 19.5339C17.4846 20.0829 17.6709 20.6258 18.0439 21.0312C18.4169 21.4365 18.9426 21.6671 19.4934 21.6671H24.0612ZM33.8625 17.7272C37.6467 17.7272 40.7584 20.6064 41.1265 24.2937H25.4397C25.5634 23.0541 25.9972 21.9059 26.6624 20.9277C26.7121 20.8655 26.7583 20.8 26.8006 20.7315C28.1281 18.9105 30.2777 17.7272 32.7037 17.7272H33.8625ZM25.1371 19.6703C25.1308 19.6793 25.1244 19.6882 25.1181 19.6971H19.4934C19.5516 18.9966 19.713 18.3326 19.959 17.7272C20.7488 15.7832 22.4111 14.4439 24.334 14.4439H25.1062C25.7885 14.4439 26.4379 14.6125 27.0272 14.9169C27.6613 15.2444 28.2257 15.7291 28.6865 16.3301C28.0628 16.5541 27.4805 16.8933 26.9567 17.327C26.2176 17.939 25.595 18.7394 25.1371 19.6703Z" fill="current"/>
<path d="M17.1106 50.5545H16.1103V39.1528H17.1106V50.5545ZM7.82518 47.5149C9.24023 47.5063 10.3218 47.4892 11.07 47.4636V46.2195C10.6125 46.1725 10.2149 46.0592 9.87721 45.8797C9.53948 45.6958 9.2787 45.4564 9.09488 45.1615C8.91105 44.8665 8.82127 44.5309 8.82555 44.1547C8.82127 43.7314 8.93242 43.3595 9.159 43.0389C9.38558 42.7183 9.70621 42.4724 10.1209 42.3014C10.5356 42.1262 11.0144 42.0385 11.5573 42.0385C12.1045 42.0385 12.5855 42.1262 13.0002 42.3014C13.4191 42.4724 13.7419 42.7183 13.9685 43.0389C14.1993 43.3595 14.3147 43.7314 14.3147 44.1547C14.3147 44.5266 14.2228 44.8601 14.039 45.155C13.8594 45.4458 13.6008 45.683 13.2631 45.8668C12.9253 46.0507 12.532 46.1682 12.0832 46.2195V47.4251C13.37 47.3653 14.4601 47.2755 15.3536 47.1558L15.4305 47.9253C14.2976 48.1091 13.1199 48.231 11.8972 48.2908C10.6745 48.3464 9.36848 48.3742 7.97908 48.3742L7.82518 47.5149ZM8.06886 40.5636H11.07V39.1657H12.0832V40.5636H15.0586V41.3844H8.06886V40.5636ZM9.76179 44.1547C9.76179 44.4155 9.8366 44.6442 9.98623 44.8408C10.1359 45.0375 10.3475 45.1892 10.6211 45.2961C10.8947 45.403 11.2068 45.4543 11.5573 45.45C11.9079 45.4543 12.22 45.403 12.4936 45.2961C12.7672 45.1892 12.9788 45.0375 13.1284 44.8408C13.278 44.6442 13.3529 44.4155 13.3529 44.1547C13.3529 43.8939 13.278 43.663 13.1284 43.4621C12.9788 43.2569 12.7672 43.0987 12.4936 42.9876C12.22 42.8764 11.9079 42.8209 11.5573 42.8209C11.2068 42.8209 10.8947 42.8764 10.6211 42.9876C10.3517 43.0987 10.1401 43.2569 9.98623 43.4621C9.8366 43.663 9.76179 43.8939 9.76179 44.1547ZM28.5123 47.8227H27.4991V46.6428H25.1392V45.9117H27.4991V39.1657H28.5123V47.8227ZM19.0473 44.4497C20.5735 44.4411 21.9244 44.4176 23.1 44.3791C24.2757 44.3364 25.4 44.2487 26.4731 44.1162L26.5372 44.8472C25.6095 44.9926 24.5664 45.1016 23.4078 45.1743V47.4251H22.3946V45.2256C21.6251 45.2555 20.5564 45.2705 19.1883 45.2705L19.0473 44.4497ZM19.9707 41.6153C19.9707 41.222 20.0882 40.8757 20.3234 40.5764C20.5585 40.2729 20.8898 40.0399 21.3173 39.8775C21.7448 39.7107 22.2365 39.6274 22.7922 39.6274C23.3437 39.6274 23.8332 39.7107 24.2607 39.8775C24.6882 40.0399 25.0195 40.2729 25.2547 40.5764C25.4941 40.8757 25.6138 41.222 25.6138 41.6153C25.6138 42.0171 25.4941 42.3677 25.2547 42.667C25.0195 42.9619 24.6882 43.1906 24.2607 43.3531C23.8375 43.5113 23.348 43.5904 22.7922 43.5904C22.2322 43.5904 21.7384 43.5113 21.3109 43.3531C20.8834 43.1906 20.5521 42.9619 20.317 42.667C20.0861 42.3677 19.9707 42.0171 19.9707 41.6153ZM20.6889 46.9762H21.7021V49.4643H28.7944V50.3108H20.6889V46.9762ZM20.9326 41.6153C20.9283 41.859 21.0031 42.0749 21.157 42.263C21.3109 42.4468 21.5289 42.59 21.8111 42.6926C22.0975 42.7952 22.4246 42.8465 22.7922 42.8465C23.1513 42.8465 23.4698 42.7952 23.7477 42.6926C24.0299 42.59 24.25 42.4468 24.4082 42.263C24.5707 42.0749 24.6519 41.859 24.6519 41.6153C24.6519 41.3759 24.5707 41.1643 24.4082 40.9804C24.25 40.7923 24.0299 40.647 23.7477 40.5444C23.4698 40.4418 23.1513 40.3926 22.7922 40.3969C22.4246 40.3926 22.0997 40.4418 21.8175 40.5444C21.5353 40.647 21.3152 40.7923 21.157 40.9804C21.0031 41.1643 20.9283 41.3759 20.9326 41.6153ZM36.7845 40.6406C36.7803 41.2348 36.761 41.7841 36.7268 42.2886C36.6926 42.7931 36.6135 43.3681 36.4896 44.0136L35.4764 43.9366C35.5961 43.3381 35.6752 42.8059 35.7136 42.3399C35.7564 41.8739 35.782 41.3887 35.7906 40.8842H31.103V40.0378H36.7845V40.6406ZM30.3976 45.0781C31.2996 45.0781 32.1162 45.0674 32.8472 45.046V42.5644H33.8476V45.014C35.3182 44.9541 36.5708 44.8515 37.6054 44.7062L37.6695 45.45C36.605 45.6339 35.4806 45.7557 34.2965 45.8155C33.1123 45.8754 31.8468 45.9075 30.5002 45.9117L30.3976 45.0781ZM32.1546 46.9634H33.1678V49.4643H39.7728V50.3108H32.1546V46.9634ZM38.3749 39.1528H39.4009V42.8722H41.0682V43.7314H39.4009V47.7329H38.3749V39.1528ZM51.2258 50.5801H50.2254V39.1528H51.2258V50.5801ZM42.4533 40.2173H47.7629V44.2701H43.505V46.9634C44.5096 46.9677 45.4523 46.9399 46.3329 46.88C47.2179 46.8202 48.1477 46.7112 49.1224 46.553L49.225 47.3995C48.2332 47.5534 47.2841 47.6602 46.3778 47.7201C45.4715 47.7799 44.4882 47.8099 43.428 47.8099H42.479V43.4493H46.7498V41.051H42.4533V40.2173Z" fill="current"/>
</svg>
