<svg width="22" height="27" viewBox="0 0 22 27" fill="none" xmlns="http://www.w3.org/2000/svg">
<path d="M11.0007 26.3359C12.4673 26.3359 13.6673 25.1359 13.6673 23.6693H8.33398C8.33398 25.1359 9.53398 26.3359 11.0007 26.3359ZM19.0007 18.3359V11.6693C19.0007 7.57594 16.8273 4.14927 13.0007 3.2426V2.33594C13.0007 1.22927 12.1073 0.335938 11.0007 0.335938C9.89398 0.335938 9.00065 1.22927 9.00065 2.33594V3.2426C5.18732 4.14927 3.00065 7.5626 3.00065 11.6693V18.3359L0.333984 21.0026V22.3359H21.6673V21.0026L19.0007 18.3359ZM16.334 19.6693H5.66732V11.6693C5.66732 8.3626 7.68065 5.66927 11.0007 5.66927C14.3207 5.66927 16.334 8.3626 16.334 11.6693V19.6693Z" fill="#3C3C3C"/>
</svg>
