<svg xmlns="http://www.w3.org/2000/svg" width="19" height="19" viewBox="0 0 19 19" fill="none">
<path d="M8.15424 0C7.92157 0 7.73263 0.189156 7.73263 0.422492V7.73188L10.6901 4.77444V0.422492C10.6901 0.189156 10.4996 0 10.267 0H8.15424Z" fill="#2D62EA"/>
<path d="M17.998 10.6895C18.2307 10.6895 18.4212 10.5003 18.4212 10.267V8.15453C18.4212 7.92119 18.2307 7.73204 17.998 7.73204L13.6461 7.73204L10.6886 10.6895H17.998Z" fill="#2D62EA"/>
<path d="M10.267 18.4216C10.4996 18.4216 10.6901 18.2324 10.6901 17.9991L10.6886 10.6895L7.73263 13.6471V17.9991C7.73263 18.2324 7.92157 18.4216 8.15424 18.4216H10.267Z" fill="#2D62EA"/>
<path d="M0.423172 7.7321C0.188945 7.7321 0 7.92126 0 8.15459V10.2671C0 10.5004 0.188945 10.6895 0.423172 10.6895H4.77512L7.73263 7.73188L0.423172 7.7321Z" fill="#2D62EA"/>
<path d="M8.30571 7.94349C8.10583 7.94349 7.94344 8.10563 7.94344 8.30563V10.1163C7.94344 10.3163 8.10583 10.4784 8.30571 10.4784H10.1171C10.3169 10.4784 10.4778 10.3163 10.4778 10.1163V8.30563C10.4778 8.10563 10.3169 7.94349 10.1171 7.94349H8.30571Z" fill="#2D62EA"/>
</svg>