<svg xmlns="http://www.w3.org/2000/svg" width="24" height="16" viewBox="0 0 24 16" fill="none">
<path d="M24 6V2C24 0.9 23.1 0 22 0H2C0.9 0 0.0100002 0.9 0.0100002 2V6C1.11 6 2 6.9 2 8C2 9.1 1.11 10 0 10V14C0 15.1 0.9 16 2 16H22C23.1 16 24 15.1 24 14V10C22.9 10 22 9.1 22 8C22 6.9 22.9 6 24 6ZM22 4.54C20.81 5.23 20 6.53 20 8C20 9.47 20.81 10.77 22 11.46V14H2V11.46C3.19 10.77 4 9.47 4 8C4 6.52 3.2 5.23 2.01 4.54L2 2H22V4.54Z" fill="#f4f4f4"/>
<path fill-rule="evenodd" clip-rule="evenodd" d="M15.8672 3.87891L17.2812 5.29297L13.0391 9.53516L11.625 10.9492L10.2109 9.53516L8.08594 7.41406L9.5 6L11.625 8.12109L15.8672 3.87891Z" fill="#f4f4f4"/>
</svg>