<svg width="60" height="54" viewBox="0 0 60 54" fill="current" xmlns="http://www.w3.org/2000/svg">
<path d="M35.2534 7.87821C35.2534 10.7795 32.9015 13.1314 30.0002 13.1314C27.099 13.1314 24.747 10.7795 24.747 7.87821C24.747 4.97694 27.099 2.625 30.0002 2.625C32.9015 2.625 35.2534 4.97694 35.2534 7.87821ZM33.2835 7.87821C33.2835 6.06492 31.8135 4.59496 30.0002 4.59496C28.1869 4.59496 26.717 6.06492 26.717 7.87821C26.717 9.69151 28.1869 11.1615 30.0002 11.1615C31.8135 11.1615 33.2835 9.69151 33.2835 7.87821Z" fill="current"/>
<path d="M16.8672 27.1915C16.8672 20.1517 22.5741 14.4447 29.614 14.4447H30.3865C37.4263 14.4447 43.1333 20.1517 43.1333 27.1915C43.1333 28.1301 42.3723 28.8911 41.4337 28.8911H18.5668C17.6281 28.8911 16.8672 28.1301 16.8672 27.1915ZM18.8405 26.9211H41.16C41.0165 21.0942 36.248 16.4147 30.3865 16.4147H29.614C23.7525 16.4147 18.984 21.0942 18.8405 26.9211Z" fill="current"/>
<path d="M7.81877 47.656H2.56042V40.3071H7.81877V47.656ZM6.8184 46.8352V41.1151H3.53514V46.8352H6.8184ZM9.90928 39.1528H10.9096V43.7058H12.8206V44.5779H10.9096V50.5545H9.90928V39.1528ZM22.8371 50.5801H21.8239V39.1528H22.8371V50.5801ZM13.8594 44.0136C13.8594 43.2184 13.9834 42.5216 14.2314 41.9231C14.4793 41.3203 14.8235 40.8565 15.2638 40.5316C15.7041 40.2024 16.2065 40.0378 16.7708 40.0378C17.3351 40.0378 17.8374 40.2024 18.2777 40.5316C18.7181 40.8565 19.0622 41.3203 19.3102 41.9231C19.5581 42.5216 19.6821 43.2184 19.6821 44.0136C19.6821 44.8088 19.5581 45.5077 19.3102 46.1105C19.0622 46.709 18.7181 47.1707 18.2777 47.4957C17.8374 47.8163 17.3351 47.9766 16.7708 47.9766C16.2065 47.9766 15.7041 47.8163 15.2638 47.4957C14.8235 47.1707 14.4793 46.709 14.2314 46.1105C13.9834 45.5077 13.8594 44.8088 13.8594 44.0136ZM14.8342 44.0136C14.8342 44.6249 14.9154 45.1636 15.0778 45.6296C15.2403 46.0913 15.469 46.4483 15.764 46.7005C16.059 46.9527 16.3946 47.0788 16.7708 47.0788C17.1513 47.0788 17.4869 46.9527 17.7776 46.7005C18.0725 46.4483 18.3013 46.0913 18.4637 45.6296C18.6262 45.1636 18.7074 44.6249 18.7074 44.0136C18.7074 43.4023 18.6262 42.8657 18.4637 42.404C18.3013 41.9381 18.0725 41.5768 17.7776 41.3203C17.4869 41.0638 17.1513 40.9355 16.7708 40.9355C16.3946 40.9355 16.059 41.0638 15.764 41.3203C15.469 41.5768 15.2403 41.9381 15.0778 42.404C14.9154 42.87 14.8342 43.4065 14.8342 44.0136ZM34.5978 50.5545H33.6231V39.1528H34.5978V50.5545ZM24.6583 46.8736C25.167 46.8736 25.5689 46.8715 25.8639 46.8672V41.4486H24.902V40.6149H30.1475V41.4486H29.1856V46.7326C29.72 46.6855 30.1261 46.6428 30.404 46.6043L30.4681 47.3482C29.6943 47.4935 28.8244 47.594 27.8582 47.6496C26.892 47.7051 25.9387 47.7329 24.9982 47.7329H24.7865L24.6583 46.8736ZM26.7873 46.848C27.2875 46.8352 27.7748 46.8159 28.2494 46.7903V41.4486H26.7873V46.848ZM29.814 43.4878H31.4044V39.435H32.3663V49.9517H31.4044V44.3984H29.814V43.4878ZM45.5378 50.5801H44.5246V39.1528H45.5378V50.5801ZM36.5601 44.0136C36.5601 43.2184 36.6841 42.5216 36.932 41.9231C37.18 41.3203 37.5241 40.8565 37.9645 40.5316C38.4048 40.2024 38.9071 40.0378 39.4714 40.0378C40.0357 40.0378 40.5381 40.2024 40.9784 40.5316C41.4187 40.8565 41.7629 41.3203 42.0108 41.9231C42.2588 42.5216 42.3828 43.2184 42.3828 44.0136C42.3828 44.8088 42.2588 45.5077 42.0108 46.1105C41.7629 46.709 41.4187 47.1707 40.9784 47.4957C40.5381 47.8163 40.0357 47.9766 39.4714 47.9766C38.9071 47.9766 38.4048 47.8163 37.9645 47.4957C37.5241 47.1707 37.18 46.709 36.932 46.1105C36.6841 45.5077 36.5601 44.8088 36.5601 44.0136ZM37.5348 44.0136C37.5348 44.6249 37.6161 45.1636 37.7785 45.6296C37.941 46.0913 38.1697 46.4483 38.4647 46.7005C38.7596 46.9527 39.0952 47.0788 39.4714 47.0788C39.8519 47.0788 40.1875 46.9527 40.4782 46.7005C40.7732 46.4483 41.0019 46.0913 41.1644 45.6296C41.3268 45.1636 41.408 44.6249 41.408 44.0136C41.408 43.4023 41.3268 42.8657 41.1644 42.404C41.0019 41.9381 40.7732 41.5768 40.4782 41.3203C40.1875 41.0638 39.8519 40.9355 39.4714 40.9355C39.0952 40.9355 38.7596 41.0638 38.4647 41.3203C38.1697 41.5768 37.941 41.9381 37.7785 42.404C37.6161 42.87 37.5348 43.4065 37.5348 44.0136ZM51.5656 42.6541C51.5656 43.2826 51.7046 43.9089 51.9824 44.533C52.2646 45.1572 52.6408 45.7129 53.1111 46.2003C53.5856 46.6834 54.1007 47.0446 54.6565 47.284L54.0922 48.0792C53.421 47.7757 52.8161 47.314 52.2774 46.6941C51.743 46.0742 51.3433 45.3709 51.0783 44.5843C50.8132 45.418 50.4114 46.1747 49.8727 46.8544C49.3383 47.5299 48.7441 48.0322 48.09 48.3614L47.4872 47.5662C48.0301 47.3054 48.5346 46.9121 49.0006 46.3863C49.4708 45.8604 49.847 45.2683 50.1292 44.61C50.4114 43.9473 50.5524 43.2954 50.5524 42.6541V41.1664H47.8591V40.3328H54.2846V41.1664H51.5656V42.6541ZM55.8749 39.1528H56.8881V50.5545H55.8749V39.1528Z" fill="current"/>
</svg>
