<svg width="60" height="54" viewBox="0 0 60 54" fill="current" xmlns="http://www.w3.org/2000/svg">
<path d="M22.1196 3.9383C22.1196 3.21299 22.7076 2.625 23.4329 2.625C24.1582 2.625 24.7462 3.21299 24.7462 3.9383V5.25161H35.2526V3.9383C35.2526 3.21299 35.8406 2.625 36.5659 2.625C37.2913 2.625 37.8792 3.21299 37.8792 3.9383V5.25161H40.5058C41.2312 5.25161 41.8192 5.83959 41.8192 6.56491V26.2645C41.8192 26.9898 41.2312 27.5778 40.5058 27.5778H19.493C18.7677 27.5778 18.1797 26.9898 18.1797 26.2645V6.56491C18.1797 5.83959 18.7677 5.25161 19.493 5.25161H22.1196V3.9383ZM20.1496 7.22156V10.5048H39.8492V7.22156H20.1496ZM20.1496 25.6078H39.8492V12.4748H20.1496V25.6078ZM35.9093 23.6379C36.9973 23.6379 37.8792 22.7559 37.8792 21.6679C37.8792 20.5799 36.9973 19.6979 35.9093 19.6979C34.8213 19.6979 33.9393 20.5799 33.9393 21.6679C33.9393 22.7559 34.8213 23.6379 35.9093 23.6379Z" fill="current"/>
<path d="M10.993 39.5761C11.5573 39.5761 12.0618 39.6851 12.5064 39.9031C12.9553 40.1169 13.3058 40.4161 13.5581 40.8009C13.8146 41.1814 13.9428 41.6153 13.9428 42.1026C13.9428 42.59 13.8146 43.0261 13.5581 43.4108C13.3058 43.7913 12.9553 44.0884 12.5064 44.3022C12.0618 44.5116 11.5573 44.6164 10.993 44.6164C10.4244 44.6164 9.91355 44.5116 9.46039 44.3022C9.01151 44.0884 8.66096 43.7913 8.40873 43.4108C8.1565 43.0261 8.03038 42.59 8.03038 42.1026C8.03038 41.6153 8.1565 41.1814 8.40873 40.8009C8.66096 40.4161 9.01151 40.1169 9.46039 39.9031C9.91355 39.6851 10.4244 39.5761 10.993 39.5761ZM9.01792 42.1026C9.01365 42.4318 9.09488 42.7247 9.2616 42.9812C9.43261 43.2377 9.66774 43.4386 9.96699 43.584C10.2705 43.725 10.6125 43.7956 10.993 43.7956C11.3649 43.7956 11.7005 43.725 11.9998 43.584C12.3033 43.4386 12.5406 43.2377 12.7116 42.9812C12.8826 42.7247 12.9681 42.4318 12.9681 42.1026C12.9681 41.7777 12.8826 41.487 12.7116 41.2305C12.5406 40.974 12.3033 40.7752 11.9998 40.6342C11.7005 40.4931 11.3649 40.4225 10.993 40.4225C10.6125 40.4225 10.2705 40.4931 9.96699 40.6342C9.66774 40.7752 9.43261 40.974 9.2616 41.2305C9.09488 41.487 9.01365 41.7777 9.01792 42.1026ZM9.76179 45.5655H17.1748V48.3101H10.775V49.5926H17.5852V50.4006H9.78744V47.5534H16.1744V46.3734H9.76179V45.5655ZM16.1744 39.1528H17.1748V45.014H16.1744V39.1528ZM28.5636 45.9502H27.5504V42.9619H25.2547V42.1283H27.5504V39.1528H28.5636V45.9502ZM19.1627 45.0396C19.7227 44.8387 20.2208 44.5437 20.6568 44.1547C21.0972 43.7656 21.4413 43.3189 21.6893 42.8144C21.9372 42.31 22.0612 41.7906 22.0612 41.2562V40.8329H19.4833V39.9865H25.6266V40.8329H23.0744V41.2434C23.0744 41.735 23.1919 42.2117 23.4271 42.6734C23.6622 43.1351 23.9935 43.5455 24.421 43.9046C24.8485 44.2594 25.3359 44.5309 25.8831 44.719L25.3573 45.527C24.7246 45.2961 24.1667 44.9541 23.6836 44.501C23.2048 44.0478 22.8414 43.5241 22.5934 42.9299C22.3498 43.5968 21.9735 44.1846 21.4648 44.6933C20.9604 45.2021 20.3683 45.5868 19.6885 45.8476L19.1627 45.0396ZM20.9582 48.4255C20.9582 47.9809 21.11 47.6004 21.4135 47.284C21.7213 46.9677 22.1616 46.7261 22.7345 46.5594C23.3116 46.3927 23.9935 46.3093 24.7801 46.3093C25.5667 46.3093 26.2465 46.3927 26.8193 46.5594C27.3922 46.7261 27.8325 46.9677 28.1403 47.284C28.4481 47.6004 28.6021 47.9809 28.6021 48.4255C28.6021 48.8701 28.4481 49.2506 28.1403 49.5669C27.8325 49.8833 27.3922 50.1248 26.8193 50.2916C26.2465 50.4626 25.5667 50.5502 24.7801 50.5545C23.9892 50.5502 23.3074 50.4626 22.7345 50.2916C22.1616 50.1248 21.7213 49.8833 21.4135 49.5669C21.11 49.2506 20.9582 48.8701 20.9582 48.4255ZM21.9586 48.4255C21.9586 48.6948 22.0697 48.9299 22.292 49.1309C22.5143 49.3275 22.835 49.4793 23.2539 49.5862C23.6772 49.693 24.1752 49.7465 24.7481 49.7465C25.3338 49.7465 25.8404 49.693 26.2679 49.5862C26.6954 49.4836 27.0245 49.3339 27.2554 49.1373C27.4863 48.9364 27.6017 48.6991 27.6017 48.4255C27.6017 48.1519 27.4884 47.9146 27.2618 47.7137C27.0352 47.5128 26.7082 47.3588 26.2807 47.252C25.8575 47.1451 25.3573 47.0917 24.7801 47.0917C24.1987 47.0917 23.6964 47.1451 23.2732 47.252C22.8499 47.3588 22.525 47.5128 22.2984 47.7137C22.0719 47.9146 21.9586 48.1519 21.9586 48.4255ZM36.7845 40.6406C36.7803 41.2348 36.761 41.7841 36.7268 42.2886C36.6926 42.7931 36.6135 43.3681 36.4896 44.0136L35.4764 43.9366C35.5961 43.3381 35.6752 42.8059 35.7136 42.3399C35.7564 41.8739 35.782 41.3887 35.7906 40.8842H31.103V40.0378H36.7845V40.6406ZM30.3976 45.0781C31.2996 45.0781 32.1162 45.0674 32.8472 45.046V42.5644H33.8476V45.014C35.3182 44.9541 36.5708 44.8515 37.6054 44.7062L37.6695 45.45C36.605 45.6339 35.4806 45.7557 34.2965 45.8155C33.1123 45.8754 31.8468 45.9075 30.5002 45.9117L30.3976 45.0781ZM32.1546 46.9634H33.1678V49.4643H39.7728V50.3108H32.1546V46.9634ZM38.3749 39.1528H39.4009V42.8722H41.0682V43.7314H39.4009V47.7329H38.3749V39.1528ZM51.2258 50.5801H50.2254V39.1528H51.2258V50.5801ZM42.4533 40.2173H47.7629V44.2701H43.505V46.9634C44.5096 46.9677 45.4523 46.9399 46.3329 46.88C47.2179 46.8202 48.1477 46.7112 49.1224 46.553L49.225 47.3995C48.2332 47.5534 47.2841 47.6602 46.3778 47.7201C45.4715 47.7799 44.4882 47.8099 43.428 47.8099H42.479V43.4493H46.7498V41.051H42.4533V40.2173Z" fill="current"/>
</svg>
